{
    "accessors" : [
        {
            "bufferView" : 0,
            "componentType" : 5121,
            "count" : 36,
            "max" : [
                35
            ],
            "min" : [
                0
            ],
            "type" : "SCALAR"
        },
        {
            "bufferView" : 1,
            "componentType" : 5126,
            "count" : 36,
            "max" : [
                0.8161786794662476,
                0.8660248517990112,
                0.7071068286895752
            ],
            "min" : [
                -0.8161787986755371,
                -0.8660248517990112,
                -0.7071068286895752
            ],
            "type" : "VEC3"
        },
        {
            "bufferView" : 2,
            "componentType" : 5126,
            "count" : 36,
            "max" : [
                0.8171306848526001,
                0.5777987241744995,
                0.70710688829422
            ],
            "min" : [
                -0.8171306848526001,
                -0.5777986645698547,
                -0.7071070075035095
            ],
            "type" : "VEC3"
        },
        {
            "bufferView" : 3,
            "componentType" : 5126,
            "count" : 36,
            "max" : [
                1.0,
                1.0
            ],
            "min" : [
                0.0,
                0.0
            ],
            "type" : "VEC2"
        },
        {
            "bufferView" : 4,
            "componentType" : 5126,
            "count" : 36,
            "max" : [
                0.9935897588729858,
                0.9935897449031472
            ],
            "min" : [
                0.006410255562514067,
                0.00641024112701416
            ],
            "type" : "VEC2"
        },
        {
            "bufferView" : 5,
            "componentType" : 5123,
            "count" : 960,
            "max" : [
                272
            ],
            "min" : [
                0
            ],
            "type" : "SCALAR"
        },
        {
            "bufferView" : 6,
            "componentType" : 5126,
            "count" : 273,
            "max" : [
                0.7499999403953552,
                0.75,
                0.75
            ],
            "min" : [
                -0.75,
                -0.75,
                -0.75
            ],
            "type" : "VEC3"
        },
        {
            "bufferView" : 7,
            "componentType" : 5126,
            "count" : 273,
            "max" : [
                0.99993896484375,
                1.0,
                1.0
            ],
            "min" : [
                -0.99993896484375,
                -1.0,
                -1.0
            ],
            "type" : "VEC3"
        },
        {
            "bufferView" : 8,
            "componentType" : 5126,
            "count" : 273,
            "max" : [
                0.9940249919891357,
                0.9944479027763009
            ],
            "min" : [
                0.0059750378131866455,
                0.005552113056182861
            ],
            "type" : "VEC2"
        },
        {
            "bufferView" : 9,
            "componentType" : 5126,
            "count" : 273,
            "max" : [
                1.0,
                1.0,
                1.0,
                1.0
            ],
            "min" : [
                0.0,
                0.0,
                0.0,
                1.0
            ],
            "type" : "VEC4"
        },
        {
            "bufferView" : 10,
            "componentType" : 5121,
            "count" : 186,
            "max" : [
                71
            ],
            "min" : [
                0
            ],
            "type" : "SCALAR"
        },
        {
            "bufferView" : 11,
            "componentType" : 5126,
            "count" : 72,
            "max" : [
                0.75,
                0.75,
                0.75
            ],
            "min" : [
                -0.75,
                -0.75,
                -0.75
            ],
            "type" : "VEC3"
        },
        {
            "bufferView" : 12,
            "componentType" : 5126,
            "count" : 72,
            "max" : [
                0.8641010522842407,
                1.0,
                0.8641010522842407
            ],
            "min" : [
                -0.8641010522842407,
                -0.503280758857727,
                -0.8641010522842407
            ],
            "type" : "VEC3"
        },
        {
            "bufferView" : 13,
            "componentType" : 5126,
            "count" : 72,
            "max" : [
                0.9820756912231445,
                0.9941402832046151
            ],
            "min" : [
                0.005677140783518553,
                0.014366507530212402
            ],
            "type" : "VEC2"
        }
    ],
    "asset" : {
        "generator" : "Khronos Blender glTF 2.0 exporter",
        "version" : "2.0"
    },
    "bufferViews" : [
        {
            "buffer" : 0,
            "byteLength" : 36,
            "byteOffset" : 0,
            "target" : 34963
        },
        {
            "buffer" : 0,
            "byteLength" : 432,
            "byteOffset" : 36,
            "target" : 34962
        },
        {
            "buffer" : 0,
            "byteLength" : 432,
            "byteOffset" : 468,
            "target" : 34962
        },
        {
            "buffer" : 0,
            "byteLength" : 288,
            "byteOffset" : 900,
            "target" : 34962
        },
        {
            "buffer" : 0,
            "byteLength" : 288,
            "byteOffset" : 1188,
            "target" : 34962
        },
        {
            "buffer" : 0,
            "byteLength" : 1920,
            "byteOffset" : 1476,
            "target" : 34963
        },
        {
            "buffer" : 0,
            "byteLength" : 3276,
            "byteOffset" : 3396,
            "target" : 34962
        },
        {
            "buffer" : 0,
            "byteLength" : 3276,
            "byteOffset" : 6672,
            "target" : 34962
        },
        {
            "buffer" : 0,
            "byteLength" : 2184,
            "byteOffset" : 9948,
            "target" : 34962
        },
        {
            "buffer" : 0,
            "byteLength" : 4368,
            "byteOffset" : 12132,
            "target" : 34962
        },
        {
            "buffer" : 0,
            "byteLength" : 186,
            "byteOffset" : 16500,
            "target" : 34963
        },
        {
            "buffer" : 0,
            "byteLength" : 864,
            "byteOffset" : 16686,
            "target" : 34962
        },
        {
            "buffer" : 0,
            "byteLength" : 864,
            "byteOffset" : 17550,
            "target" : 34962
        },
        {
            "buffer" : 0,
            "byteLength" : 576,
            "byteOffset" : 18414,
            "target" : 34962
        }
    ],
    "buffers" : [
        {
            "byteLength" : 18990,
            "uri" : "Constant.bin"
        }
    ],
    "images" : [
        {
            "uri" : "box-lightmap.png"
        },
        {
            "uri" : "alpha.png"
        },
        {
            "uri" : "sphere-lightmap.png"
        },
        {
            "uri" : "cone-lightmap.png"
        }
    ],
    "materials" : [
        {
            "alphaMode" : "BLEND",
            "alphaCutoff": 0.5,
            "doubleSided" : true,
            "emissiveFactor" : [
                0.0,
                1.0,
                0.0
            ],
            "emissiveTexture" : {
                "index" : 1
            },
            "name" : "Material",
            "commonConstant" : {
                "lightmapTexture": {
                   "index": 0,
                   "texCoord": 1
                }
            }
        },
        {
            "emissiveFactor" : [
                0.0,
                0.0,
                1.0
            ],
            "name" : "Material.002",
            "commonConstant" : {
                "lightmapTexture": {
                    "index": 2
                },
                "lightmapFactor": [1,1,1]
            }
        },
        {
            "emissiveFactor" : [
                1.0,
                0.0,
                0.0
            ],
            "name" : "Material.003",
            "commonConstant" : {
                "lightmapTexture": {
                    "index": 3
                }
            }
        }
    ],
    "meshes" : [
        {
            "name" : "Cube",
            "primitives" : [
                {
                    "attributes" : {
                        "NORMAL" : 2,
                        "POSITION" : 1,
                        "TEXCOORD_0" : 3,
                        "TEXCOORD_1" : 4
                    },
                    "indices" : 0,
                    "material" : 0
                }
            ]
        },
        {
            "name" : "Icosphere",
            "primitives" : [
                {
                    "attributes" : {
                        "COLOR_0" : 9,
                        "NORMAL" : 7,
                        "POSITION" : 6,
                        "TEXCOORD_0" : 8
                    },
                    "indices" : 5,
                    "material" : 1
                }
            ]
        },
        {
            "name" : "Cone",
            "primitives" : [
                {
                    "attributes" : {
                        "NORMAL" : 12,
                        "POSITION" : 11,
                        "TEXCOORD_0" : 13
                    },
                    "indices" : 10,
                    "material" : 2
                }
            ]
        }
    ],
    "nodes" : [
        {
            "mesh" : 2,
            "name" : "Cone",
            "translation" : [
                0.0,
                0.7512085437774658,
                2.0
            ]
        },
        {
            "mesh" : 0,
            "name" : "Cube",
            "translation" : [
                0.0,
                0.861341118812561,
                -0.0
            ]
        },
        {
            "mesh" : 1,
            "name" : "Icosphere",
            "translation" : [
                0.0,
                0.75,
                -2.0
            ]
        }
    ],
    "samplers" : [
        {}
    ],
    "scene" : 0,
    "scenes" : [
        {
            "name" : "Scene",
            "nodes" : [
                0,
                2,
                1
            ]
        }
    ],
    "textures" : [
        {
            "sampler" : 0,
            "source" : 0
        },
        {
            "sampler" : 0,
            "source" : 1
        },
        {
            "sampler" : 0,
            "source" : 2
        },
        {
            "sampler" : 0,
            "source" : 3
        }
    ],
    "extensionsUsed": ["KHR_materials_common"]
}
