{"accessors":[{"bufferView":0,"componentType":5126,"count":24,"type":"VEC3","max":[0.5,0.5,0.5],"min":[-0.5,-0.5,-0.5]},{"bufferView":1,"componentType":5120,"count":36,"type":"SCALAR","max":[23.0],"min":[0.0]},{"bufferView":2,"componentType":5126,"count":24,"type":"VEC3","max":[1.0,1.0,1.0],"min":[-1.0,-1.0,-1.0]},{"bufferView":3,"componentType":5126,"count":24,"type":"VEC4","max":[0.0,0.0,1.0,1.0],"min":[-1.0,0.0,-1.0,1.0]},{"bufferView":4,"componentType":5126,"count":24,"type":"VEC2","max":[1.0,0.0],"min":[0.0,-1.0]},{"bufferView":5,"componentType":5126,"count":24,"type":"VEC2","max":[0.9966580867767334,-0.0040557663887739182],"min":[0.0040557663887739182,-0.65283584594726563]},{"bufferView":6,"componentType":5126,"count":515,"type":"VEC3","max":[0.5,0.5,0.5],"min":[-0.5,-0.5,-0.5]},{"bufferView":7,"componentType":5122,"count":2304,"type":"SCALAR","max":[514.0],"min":[0.0]},{"bufferView":8,"componentType":5126,"count":515,"type":"VEC3","max":[0.99997496604919434,1.0,0.99997353553771973],"min":[-0.99997496604919434,-1.0,-0.9999769926071167]},{"bufferView":9,"componentType":5126,"count":515,"type":"VEC4","max":[1.0,0.056131001561880112,1.0,1.0],"min":[-1.0,-0.065983392298221588,-1.0,-1.0]},{"bufferView":10,"componentType":5126,"count":515,"type":"VEC2","max":[0.99833369255065918,-0.017628978937864304],"min":[-0.00092136859893798828,-0.97589123249053955]},{"bufferView":11,"componentType":5126,"count":515,"type":"VEC2","max":[1.0000003576278687,0.0],"min":[0.0,-0.65385353565216064]},{"bufferView":12,"componentType":5126,"count":121,"type":"VEC3","max":[5.0,1.1102230246251565E-16,5.0],"min":[-5.0,-1.1102230246251565E-16,-5.0]},{"bufferView":13,"componentType":5120,"count":600,"type":"SCALAR","max":[120.0],"min":[0.0]},{"bufferView":14,"componentType":5126,"count":121,"type":"VEC3","max":[0.0,1.0,0.0],"min":[0.0,1.0,0.0]},{"bufferView":15,"componentType":5126,"count":121,"type":"VEC4","max":[-1.0,0.0,0.0,1.0],"min":[-1.0,0.0,0.0,1.0]},{"bufferView":16,"componentType":5126,"count":121,"type":"VEC2","max":[1.0,0.0],"min":[0.0,-1.0]},{"bufferView":17,"componentType":5126,"count":88,"type":"VEC3","max":[0.50000011920928955,1.0,0.5000002384185791],"min":[-0.5,-1.0,-0.50000005960464478]},{"bufferView":18,"componentType":5120,"count":240,"type":"SCALAR","max":[87.0],"min":[0.0]},{"bufferView":19,"componentType":5126,"count":88,"type":"VEC3","max":[1.0,1.0,1.0],"min":[-1.0,-1.0,-1.0]},{"bufferView":20,"componentType":5126,"count":88,"type":"VEC4","max":[1.0,0.0,1.0,1.0],"min":[-1.0,0.0,-1.0,1.0]},{"bufferView":21,"componentType":5126,"count":88,"type":"VEC2","max":[0.99974912405014038,-0.00045373811735771596],"min":[0.00069368560798466206,-0.999430775642395]},{"bufferView":22,"componentType":5126,"count":88,"type":"VEC2","max":[0.99716836214065552,-0.002600180683657527],"min":[0.0043606190010905266,-0.99788063764572144]}],"asset":{"version":"2.0"},"buffers":[{"uri":"TestScene.bin","byteLength":46404}],"bufferViews":[{"buffer":0,"byteLength":288},{"buffer":0,"byteOffset":288,"byteLength":36},{"buffer":0,"byteOffset":324,"byteLength":288},{"buffer":0,"byteOffset":612,"byteLength":384},{"buffer":0,"byteOffset":996,"byteLength":192},{"buffer":0,"byteOffset":1188,"byteLength":192},{"buffer":0,"byteOffset":1380,"byteLength":6180},{"buffer":0,"byteOffset":7560,"byteLength":4608},{"buffer":0,"byteOffset":12168,"byteLength":6180},{"buffer":0,"byteOffset":18348,"byteLength":8240},{"buffer":0,"byteOffset":26588,"byteLength":4120},{"buffer":0,"byteOffset":30708,"byteLength":4120},{"buffer":0,"byteOffset":34828,"byteLength":1452},{"buffer":0,"byteOffset":36280,"byteLength":600},{"buffer":0,"byteOffset":36880,"byteLength":1452},{"buffer":0,"byteOffset":38332,"byteLength":1936},{"buffer":0,"byteOffset":40268,"byteLength":968},{"buffer":0,"byteOffset":41236,"byteLength":1056},{"buffer":0,"byteOffset":42292,"byteLength":240},{"buffer":0,"byteOffset":42532,"byteLength":1056},{"buffer":0,"byteOffset":43588,"byteLength":1408},{"buffer":0,"byteOffset":44996,"byteLength":704},{"buffer":0,"byteOffset":45700,"byteLength":704}],"materials":[{"pbrMetallicRoughness":{"metallicFactor":0.0,"roughnessFactor":0.5},"name":"Default-Material"},{"pbrMetallicRoughness":{"baseColorFactor":[0.489488125,0.311418653,0.9411765,1.0],"metallicFactor":0.0,"roughnessFactor":0.0},"emissiveFactor":[0.8014706,0.106076963,0.106076963],"name":"TestMaterial1"},{"pbrMetallicRoughness":{"metallicFactor":0.0,"roughnessFactor":0.5},"name":"Default-Material"},{"pbrMetallicRoughness":{"baseColorFactor":[1.0,0.0,0.0,0.938],"metallicFactor":0.0,"roughnessFactor":0.5},"alphaMode":"BLEND","name":"UnityStandardMaterial"}],"meshes":[{"primitives":[{"attributes":{"POSITION":0,"NORMAL":2,"TANGENT":3,"TEXCOORD_0":4,"TEXCOORD_1":5},"indices":1,"material":0}],"name":"Cube Instance"},{"primitives":[{"attributes":{"POSITION":6,"NORMAL":8,"TANGENT":9,"TEXCOORD_0":10,"TEXCOORD_1":11},"indices":7,"material":1}],"name":"Sphere Instance"},{"primitives":[{"attributes":{"POSITION":12,"NORMAL":14,"TANGENT":15,"TEXCOORD_0":16},"indices":13,"material":2}],"name":"Plane Instance"},{"primitives":[{"attributes":{"POSITION":17,"NORMAL":19,"TANGENT":20,"TEXCOORD_0":21,"TEXCOORD_1":22},"indices":18,"material":3}],"name":"Cylinder Instance"}],"nodes":[{"children":[1],"name":"TestExportScene"},{"children":[2,3,4,5],"name":"TestNode"},{"mesh":0,"rotation":[0.0,-0.382683426,0.0,0.923879564],"name":"Cube"},{"mesh":1,"translation":[1.62,0.0,0.0],"name":"Sphere"},{"mesh":2,"translation":[0.0,-0.68,0.0],"name":"Plane"},{"mesh":3,"rotation":[0.0,0.0,0.222586334,0.974913],"translation":[0.872,0.75,1.199],"name":"Cylinder"}],"scene":0,"scenes":[{"nodes":[0],"name":"TestExportScene"}]}