{
    "accessors" : [
        {
            "bufferView" : 0,
            "componentType" : 5121,
            "count" : 36,
            "max" : [
                23
            ],
            "min" : [
                0
            ],
            "type" : "SCALAR"
        },
        {
            "bufferView" : 1,
            "componentType" : 5126,
            "count" : 24,
            "max" : [
                0.5,
                0.5,
                0.5
            ],
            "min" : [
                -0.5,
                -0.5,
                -0.5
            ],
            "type" : "VEC3"
        },
        {
            "bufferView" : 2,
            "componentType" : 5126,
            "count" : 24,
            "max" : [
                1.0,
                1.0,
                1.0
            ],
            "min" : [
                -1.0,
                -1.0,
                -1.0
            ],
            "type" : "VEC3"
        },
        {
            "bufferView" : 3,
            "componentType" : 5121,
            "count" : 108,
            "max" : [
                56
            ],
            "min" : [
                0
            ],
            "type" : "SCALAR"
        },
        {
            "bufferView" : 4,
            "componentType" : 5126,
            "count" : 57,
            "max" : [
                1.0,
                1.0,
                0.05000000074505806
            ],
            "min" : [
                -0.05000000074505806,
                -0.05000000074505806,
                -1.0
            ],
            "type" : "VEC3"
        },
        {
            "bufferView" : 5,
            "componentType" : 5126,
            "count" : 57,
            "max" : [
                1.0,
                1.0,
                1.0
            ],
            "min" : [
                -1.0,
                -1.0,
                -1.0
            ],
            "type" : "VEC3"
        },
        {
            "bufferView" : 6,
            "componentType" : 5126,
            "count" : 57,
            "max" : [
                1.0,
                1.0,
                1.0,
                1.0
            ],
            "min" : [
                0.0,
                0.0,
                0.0,
                1.0
            ],
            "type" : "VEC4"
        }
    ],
    "asset" : {
        "generator" : "Khronos Blender glTF 2.0 exporter",
        "version" : "2.0"
    },
    "bufferViews" : [
        {
            "buffer" : 0,
            "byteLength" : 36,
            "byteOffset" : 0,
            "target" : 34963
        },
        {
            "buffer" : 0,
            "byteLength" : 288,
            "byteOffset" : 36,
            "target" : 34962
        },
        {
            "buffer" : 0,
            "byteLength" : 288,
            "byteOffset" : 324,
            "target" : 34962
        },
        {
            "buffer" : 0,
            "byteLength" : 108,
            "byteOffset" : 612,
            "target" : 34963
        },
        {
            "buffer" : 0,
            "byteLength" : 684,
            "byteOffset" : 720,
            "target" : 34962
        },
        {
            "buffer" : 0,
            "byteLength" : 684,
            "byteOffset" : 1404,
            "target" : 34962
        },
        {
            "buffer" : 0,
            "byteLength" : 912,
            "byteOffset" : 2088,
            "target" : 34962
        }
    ],
    "buffers" : [
        {
            "byteLength" : 3000,
            "uri" : "TestAxes.bin"
        }
    ],
    "materials" : [
        {
            "name" : "Material.001",
            "commonConstant" : {},
            "emissiveFactor": [1,1,1]
        }
    ],
    "meshes" : [
        {
            "name" : "Cube.007",
            "primitives" : [
                {
                    "attributes" : {
                        "NORMAL" : 2,
                        "POSITION" : 1
                    },
                    "indices" : 0
                }
            ]
        },
        {
            "name" : "Cube.001",
            "primitives" : [
                {
                    "attributes" : {
                        "COLOR_0" : 6,
                        "NORMAL" : 5,
                        "POSITION" : 4
                    },
                    "indices" : 3,
                    "material" : 0
                }
            ]
        }
    ],
    "nodes" : [
        {
            "children" : [
                1
            ],
            "mesh" : 1,
            "name" : "Axis",
            "translation" : [
                0.5,
                0.5,
                -0.5
            ]
        },
        {
            "mesh" : 1,
            "name" : "Axis.001",
            "rotation" : [
                0.7071068286895752,
                3.090862676913275e-08,
                0.7071068286895752,
                3.090862321641907e-08
            ],
            "translation" : [
                1.0,
                1.0,
                -1.0
            ]
        },
        {
            "children" : [
                3
            ],
            "mesh" : 1,
            "name" : "Axis.002",
            "rotation" : [
                0.0,
                0.7071068286895752,
                -0.0,
                0.7071067690849304
            ],
            "translation" : [
                -0.5,
                0.5,
                -0.5
            ]
        },
        {
            "mesh" : 1,
            "name" : "Axis.003",
            "rotation" : [
                0.7071068286895752,
                3.090862676913275e-08,
                0.7071068286895752,
                3.090862321641907e-08
            ],
            "translation" : [
                1.0000001192092896,
                1.0,
                -0.9999998807907104
            ]
        },
        {
            "children" : [
                5
            ],
            "mesh" : 1,
            "name" : "Axis.004",
            "rotation" : [
                0.0,
                1.0,
                -0.0,
                -4.371138828673793e-08
            ],
            "translation" : [
                -0.5,
                0.5,
                0.5
            ]
        },
        {
            "mesh" : 1,
            "name" : "Axis.005",
            "rotation" : [
                0.7071068286895752,
                3.090862676913275e-08,
                0.7071068286895752,
                3.090862321641907e-08
            ],
            "translation" : [
                1.0,
                1.0,
                -1.0
            ]
        },
        {
            "mesh" : 0,
            "name" : "Cube.006",
            "translation" : [
                1.0,
                1.0,
                1.0
            ]
        }
    ],
    "scene" : 0,
    "scenes" : [
        {
            "name" : "Scene",
            "nodes" : [
                4,
                2,
                6,
                0
            ]
        }
    ],
    "extensionsUsed": ["KHR_materials_common"]
}
