{
  "accessors": [
    {
      "bufferView": 0,
      "componentType": 5126,
      "count": 3575,
      "type": "VEC3",
      "max": [
        0.0099211540073156357,
        0.00977163016796112,
        0.010076245293021202
      ],
      "min": [
        -0.0099211540073156357,
        -0.00977163016796112,
        -0.010076245293021202
      ]
    },
    {
      "bufferView": 1,
      "componentType": 5126,
      "count": 3575,
      "type": "VEC3",
      "max": [
        1.0,
        1.0,
        0.99997818470001221
      ],
      "min": [
        -1.0,
        -1.0,
        -0.99808228015899658
      ]
    },
    {
      "bufferView": 2,
      "componentType": 5126,
      "count": 3575,
      "type": "VEC4",
      "max": [
        1.0,
        0.999997615814209,
        1.0,
        1.0
      ],
      "min": [
        -0.99912887811660767,
        -0.99990785121917725,
        -1.0,
        1.0
      ]
    },
    {
      "bufferView": 3,
      "componentType": 5126,
      "count": 3575,
      "type": "VEC2",
      "max": [
        0.99990028142929077,
        -0.022137761116027832
      ],
      "min": [
        0.000658599310554564,
        -0.99677395820617676
      ]
    },
    {
      "bufferView": 4,
      "componentType": 5123,
      "count": 18108,
      "type": "SCALAR",
      "max": [
        3574.0
      ],
      "min": [
        0.0
      ]
    }
  ],
  "asset": {
    "version": "2.0"
  },
  "buffers": [
    {
      "uri": "GLTFScene.bin",
      "byteLength": 207816
    }
  ],
  "bufferViews": [
    {
      "buffer": 0,
      "byteLength": 42900
    },
    {
      "buffer": 0,
      "byteOffset": 42900,
      "byteLength": 42900
    },
    {
      "buffer": 0,
      "byteOffset": 85800,
      "byteLength": 57200
    },
    {
      "buffer": 0,
      "byteOffset": 143000,
      "byteLength": 28600
    },
    {
      "buffer": 0,
      "byteOffset": 171600,
      "byteLength": 36216
    }
  ],
  "images": [
    {
      "uri": "1.png",
      "name": "1"
    },
    {
      "uri": "2.png",
      "name": "2"
    },
    {
      "uri": "3.png",
      "name": "3"
    },
    {
      "uri": "4.png",
      "name": "4"
    }
  ],
  "materials": [
    {
      "pbrMetallicRoughness": {
        "baseColorTexture": {
          "index": 2
        },
        "metallicRoughnessTexture": {
          "index": 3
        }
      },
      "normalTexture": {
        "index": 1
      },
      "emissiveTexture": {
        "index": 0
      },
      "emissiveFactor": [
        1.0,
        1.0,
        1.0
      ],
      "name": "GLTF/GLTFStandard"
    }
  ],
  "meshes": [
    {
      "primitives": [
        {
          "attributes": {
            "POSITION": 0,
            "NORMAL": 1,
            "TANGENT": 2,
            "TEXCOORD_0": 3
          },
          "indices": 4,
          "material": 0
        }
      ],
      "name": "BoomBox"
    }
  ],
  "nodes": [
    {
      "children": [
        1
      ],
      "name": "GLTFScene"
    },
    {
      "mesh": 0,
      "scale": [
        80.0,
        80.0,
        80.0
      ],
      "translation": [
        0.0,
        0.163,
        0.053
      ],
      "name": "BoomBox"
    }
  ],
  "samplers": [
    {}
  ],
  "scene": 0,
  "scenes": [
    {
      "nodes": [
        0
      ],
      "name": "GLTFScene"
    }
  ],
  "textures": [
    {
      "sampler": 0,
      "source": 0,
      "name": "1"
    },
    {
      "sampler": 0,
      "source": 1,
      "name": "2"
    },
    {
      "sampler": 0,
      "source": 2,
      "name": "3"
    },
    {
      "sampler": 0,
      "source": 3,
      "name": "4"
    }
  ]
}